<svg width="371" height="107" viewBox="0 0 371 107" fill="none" xmlns="http://www.w3.org/2000/svg">
<path d="M355.013 15.6859C345.371 6.12344 331.763 0.242948 316.05 0.249028C300.349 0.244164 286.665 6.20248 276.961 15.8233C270.922 21.8023 266.417 29.1991 263.869 37.4337C261.375 29.4119 256.953 22.2984 250.967 16.6003C241.336 7.41846 227.694 1.92952 211.761 1.93438H171.202V62.821C168.521 57.3491 163.902 53.4178 158.084 50.6089C163.827 46.325 168.37 39.7368 168.313 29.8934V29.6186C168.335 21.2867 164.89 14.1441 158.756 9.3312C152.639 4.5074 144.016 1.93438 133.629 1.93438H85.7829V62.8162C83.1016 57.3442 78.4833 53.413 72.6697 50.6077C78.4067 46.3238 82.946 39.7356 82.8925 29.8922V29.6174C82.918 21.2916 79.4744 14.1428 73.3409 9.33484C67.2233 4.50132 58.6008 1.93803 48.209 1.93803H0.371094V104.616H49.335C60.6996 104.611 70.3302 102.339 77.3038 97.4789C81.0101 94.9132 83.8908 91.5595 85.7829 87.5565V104.616H134.753C146.116 104.611 155.748 102.344 162.727 97.4789C166.429 94.9169 169.309 91.5644 171.201 87.5614V104.616H211.782C227.721 104.616 241.351 99.0524 250.976 89.8073C256.889 84.1384 261.267 77.0857 263.773 69.1587C266.282 77.4517 270.771 84.8826 276.816 90.8688C286.459 100.425 300.073 106.306 315.775 106.301H315.797C331.498 106.301 345.176 100.341 354.882 90.7254C364.592 81.1094 370.346 67.8223 370.341 53.278V52.9983C370.344 38.4564 364.665 25.2375 355.013 15.6859ZM26.0417 25.5074H44.9915C49.245 25.4977 52.3032 26.3793 54.1211 27.695C55.9171 29.0265 56.7574 30.6328 56.7939 33.2532V33.5329C56.7355 36.5278 55.7639 38.1025 53.698 39.4608C51.6004 40.7923 48.1081 41.5742 43.5907 41.5681H26.0417V25.5074ZM62.2621 72.7434C62.2038 75.7761 61.2371 77.4566 59.2343 78.8501C57.2109 80.2181 53.8244 81.0583 49.3338 81.0486H26.0465V64.1537H48.6322C53.8937 64.1428 57.4177 65.1521 59.4143 66.5784C61.3964 68.0157 62.2147 69.7387 62.2621 72.4638V72.7434ZM111.46 25.5074H130.409C134.657 25.5025 137.727 26.3853 139.533 27.6998C141.33 29.0252 142.174 30.6376 142.217 33.252V33.5268C142.153 36.5327 141.181 38.1025 139.11 39.4644C137.018 40.7959 133.526 41.573 129.013 41.5571H111.46V25.5074ZM147.681 72.7386C147.629 75.7761 146.651 77.4566 144.653 78.8562C142.63 80.2241 139.25 81.0595 134.753 81.0486H111.46V64.1537H134.045C139.308 64.1428 142.831 65.1569 144.829 66.5784C146.809 68.0157 147.634 69.7327 147.681 72.4638V72.7386ZM238.973 53.5552C238.842 69.791 228.307 80.3567 211.76 80.4844H197.438V26.068H211.76C228.264 26.1896 238.846 37.0361 238.973 53.2816V53.5552ZM343.131 53.5552C343.057 69.2511 332.095 81.7149 316.05 81.7466C300.041 81.7247 288.757 68.9459 288.705 53.2816V53.002C288.779 37.3061 299.741 24.8423 315.776 24.8058C331.789 24.8265 343.074 37.6064 343.132 53.2816V53.5552H343.131Z" fill="black"/>
</svg>
