<svg width="643" height="159" viewBox="0 0 643 159" fill="none" xmlns="http://www.w3.org/2000/svg">
<g clip-path="url(#clip0_8567_2618)">
<g clip-path="url(#clip1_8567_2618)">
<path d="M0 33.6818H52.3637V125.318H0V151.5H137.455V125.318H85.091V33.6818H137.455V7.5H0V33.6818Z" fill="black"/>
<path d="M333.751 151.5H471.206V125.318H359.933V92.591H451.569V66.4091H359.933V33.6818H471.206V7.5H333.751V151.5Z" fill="black"/>
<path d="M566.753 0.957031C546.347 1.36845 526.93 9.8224 512.726 24.4792C498.522 39.1359 490.682 58.8093 490.911 79.218C490.467 89.4635 492.102 99.6929 495.717 109.29C499.332 118.887 504.852 127.653 511.945 135.059C519.038 142.466 527.557 148.36 536.988 152.387C546.42 156.414 556.569 158.49 566.824 158.49C577.079 158.49 587.228 156.414 596.66 152.387C606.091 148.36 614.61 142.466 621.703 135.059C628.796 127.653 634.316 118.887 637.931 109.29C641.546 99.6929 643.181 89.4635 642.737 79.218C642.964 69.0698 641.17 58.9778 637.46 49.5294C633.75 40.0809 628.198 31.4646 621.127 24.1818C614.056 16.899 605.608 11.0952 596.273 7.10803C586.938 3.12086 576.903 1.02997 566.753 0.957031V0.957031ZM566.753 131.226C560.079 131.124 553.492 129.703 547.37 127.044C541.248 124.385 535.713 120.541 531.083 115.733C526.454 110.925 522.822 105.248 520.396 99.03C517.971 92.8119 516.8 86.1753 516.951 79.5025C516.951 66.2941 522.198 53.6267 531.537 44.2869C540.877 34.9472 553.545 29.7001 566.753 29.7001C579.961 29.7001 592.629 34.9472 601.969 44.2869C611.308 53.6267 616.555 66.2941 616.555 79.5025C616.706 86.1753 615.535 92.8119 613.11 99.03C610.684 105.248 607.052 110.925 602.422 115.733C597.793 120.541 592.258 124.385 586.136 127.044C580.014 129.703 573.427 131.124 566.753 131.226V131.226Z" fill="black"/>
<path d="M237.558 7.5H170.183V151.5H236.278C245.801 151.693 255.262 149.934 264.08 146.332C272.898 142.73 280.885 137.361 287.55 130.557C294.215 123.752 299.417 115.655 302.834 106.764C306.252 97.8731 307.814 88.3768 307.424 78.8597C307.566 38.9467 280.104 8.78063 237.558 7.5ZM236.918 125.318H196.364V33.6818H236.918C263.1 34.3222 279.606 53.3182 279.606 79.5001C279.606 105.682 263.242 124.678 236.918 125.318Z" fill="black"/>
</g>
</g>
<defs>
<clipPath id="clip0_8567_2618">
<rect width="642.665" height="157.091" fill="white" transform="translate(0 0.957031)"/>
</clipPath>
<clipPath id="clip1_8567_2618">
<rect width="642.665" height="157.091" fill="white" transform="translate(0 0.957031)"/>
</clipPath>
</defs>
</svg>
