<?xml version="1.0" encoding="utf-8"?>
<!-- Generator: Adobe Illustrator 27.8.0, SVG Export Plug-In . SVG Version: 6.00 Build 0)  -->
<svg version="1.1" id="Ebene_1" xmlns="http://www.w3.org/2000/svg" xmlns:xlink="http://www.w3.org/1999/xlink" x="0px" y="0px"
	 viewBox="0 0 1930.61 216.88" style="enable-background:new 0 0 1930.61 216.88;" xml:space="preserve">
<g id="Gruppe_30" transform="translate(-4314.192 -1201.008)">
	<path id="Pfad_15" d="M4900.27,1417.89c61.33,0,109.91-47.11,109.91-108.44s-48.58-108.44-109.91-108.44
		s-109.92,47.11-109.92,108.44S4838.94,1417.89,4900.27,1417.89z M4900.27,1359.82c-29.33,0-50.66-21.63-50.66-50.37
		c0-28.74,21.33-50.37,50.66-50.37s50.65,21.63,50.65,50.37C4950.93,1338.19,4929.61,1359.82,4900.27,1359.82z M5122.78,1417.89
		c50.07,0,84.44-29.63,84.44-74.07v-138.07h-59.26v131.55c0,14.22-7.41,23.11-25.18,23.11c-17.78,0-25.18-8.89-25.18-23.11v-131.55
		h-59.26v138.07C5038.34,1388.26,5072.71,1417.89,5122.78,1417.89z M5387.94,1205.75h-157.03v57.48h48.89v149.92h59.26v-149.92
		h48.89V1205.75z M5630.9,1205.75h-59.26l-48.89,84.44l-48.88-84.44h-59.26v207.4h59.26v-101.03l46.22,77.63h5.33l46.22-77.63
		v101.03h59.26L5630.9,1205.75z M5771.94,1417.89c61.33,0,109.92-47.11,109.92-108.44s-48.59-108.44-109.92-108.44
		s-109.93,47.11-109.93,108.44S5710.61,1417.89,5771.94,1417.89z M5771.94,1359.82c-29.33,0-50.66-21.63-50.66-50.37
		c0-28.74,21.33-50.37,50.66-50.37s50.66,21.63,50.66,50.37C5822.6,1338.19,5801.27,1359.82,5771.94,1359.82z M5952.37,1413.15
		h66.37l66.07-207.4h-65.18l-34.07,131.85l-34.07-131.85h-65.18L5952.37,1413.15z M6167.77,1358.63v-23.11h68.15v-53.32h-68.15
		v-22.52h75.55v-53.93h-134.81v207.4h136.29v-54.52H6167.77z"/>
	<path id="Differenzmenge_3" d="M4615.18,1417.89h-192.56c-59.9-0.02-108.45-48.59-108.43-108.49c0.01-43.57,26.09-82.9,66.22-99.87
		c13.35-5.65,27.71-8.55,42.21-8.52h192.55c59.9,0.02,108.44,48.6,108.42,108.5c-0.01,43.56-26.09,82.89-66.21,99.86
		C4644.03,1415.02,4629.68,1417.91,4615.18,1417.89z M4422.01,1240.63v0.02c-17.99,0.09-35.18,7.4-47.73,20.29
		c-12.51,13.03-19.42,30.44-19.26,48.5c-0.16,18.07,6.75,35.48,19.26,48.51c12.55,12.89,29.74,20.2,47.73,20.29v0.02H4554v-37.71
		h-64.3l48.41-28.83c0.62-0.37,1-1.03,1-1.75v-1.06c0-0.72-0.38-1.38-1-1.75l-48.41-28.83h64.3v-37.7H4422.01z M4423.7,1341.18
		c-0.26,0-0.53,0-0.78,0h-0.1c-0.14,0-0.29,0-0.42,0s-0.26,0-0.38,0c-16.65-0.05-30.23-13.33-30.65-29.97c0-0.25,0-0.51,0-0.82
		c0-0.31,0-0.63,0.01-0.94c-0.54-16.98,12.79-31.18,29.76-31.72h1.48h0.29c0.26,0,0.54,0,0.81,0c16.66,0.03,30.27,13.3,30.72,29.96
		c0.02,0.6,0.01,1.19,0,1.76c0.16,4.84-0.84,9.65-2.91,14.02c-2.38,5.06-6.09,9.39-10.73,12.51c-4.78,3.21-10.38,5.01-16.14,5.19
		C4424.34,1341.18,4424.01,1341.18,4423.7,1341.18z"/>
</g>
</svg>
