<svg width="99" height="44" viewBox="0 0 99 44" fill="none" xmlns="http://www.w3.org/2000/svg">
<path d="M0.078125 13.7369H4.29716C4.3214 14.5128 4.61237 15.1311 5.17006 15.5918C5.72775 16.0525 6.50366 16.2828 7.4978 16.2828C8.56468 16.2828 9.36484 16.0888 9.89828 15.7009C10.456 15.3129 10.7348 14.7916 10.7348 14.1369C10.7348 13.7005 10.5893 13.3125 10.2984 12.9731C10.0074 12.6336 9.46183 12.379 8.66167 12.2093L5.42465 11.4455C3.80009 11.0818 2.58772 10.4998 1.78756 9.69968C1.01165 8.87527 0.623689 7.74777 0.623689 6.31718C0.623689 5.15331 0.926781 4.14705 1.53296 3.2984C2.16339 2.44974 3.01205 1.80718 4.07893 1.37073C5.14581 0.910036 6.3703 0.679688 7.7524 0.679688C9.086 0.679688 10.262 0.92216 11.2804 1.40711C12.2988 1.89205 13.0868 2.57098 13.6445 3.44388C14.2264 4.31678 14.5295 5.33517 14.5538 6.49904H10.3347C10.3347 5.72312 10.0923 5.11694 9.60731 4.68049C9.12237 4.21979 8.44344 3.98944 7.57054 3.98944C6.69764 3.98944 6.01871 4.18342 5.53377 4.57138C5.04882 4.95933 4.80635 5.48065 4.80635 6.13533C4.80635 7.12947 5.58226 7.80839 7.13409 8.1721L10.3711 8.93589C11.8744 9.27535 13.0019 9.82092 13.7536 10.5726C14.5295 11.3242 14.9175 12.3911 14.9175 13.7732C14.9175 14.9856 14.6023 16.0403 13.9718 16.9375C13.3414 17.8104 12.4564 18.4893 11.3167 18.9743C10.1771 19.435 8.86777 19.6653 7.38869 19.6653C5.15793 19.6653 3.37576 19.1198 2.04216 18.0286C0.732802 16.9375 0.078125 15.5069 0.078125 13.7369Z" fill="white"/>
<path d="M18.296 19.1925V1.22525H22.7332V19.1925H18.296Z" fill="white"/>
<path d="M31.7549 19.1925H27.3177V1.22525H31.3912L31.9368 4.42589L31.4276 3.98944C31.7913 3.11654 32.4581 2.35275 33.428 1.69807C34.3979 1.01915 35.6103 0.679688 37.0651 0.679688C38.6412 0.679688 39.9263 1.09189 40.9204 1.9163C41.9388 2.74071 42.642 3.83183 43.0299 5.18968H42.3025C42.5692 3.83183 43.2482 2.74071 44.3393 1.9163C45.4547 1.09189 46.8004 0.679688 48.3765 0.679688C50.5587 0.679688 52.2318 1.29799 53.3957 2.5346C54.5595 3.74697 55.1415 5.38366 55.1415 7.44468V19.1925H50.7406V8.60855C50.7406 7.32345 50.4132 6.35356 49.7586 5.69888C49.1281 5.01995 48.2795 4.68049 47.2126 4.68049C46.5337 4.68049 45.9033 4.8381 45.3213 5.15331C44.7636 5.46853 44.3151 5.94135 43.9756 6.57178C43.6361 7.20221 43.4664 8.0145 43.4664 9.00863V19.1925H39.0291V8.57218C39.0291 7.31132 38.7139 6.35356 38.0835 5.69888C37.4531 5.0442 36.6165 4.71686 35.5739 4.71686C34.8707 4.71686 34.2282 4.87447 33.6462 5.18968C33.0643 5.48065 32.6036 5.95347 32.2641 6.60815C31.9247 7.23858 31.7549 8.03874 31.7549 9.00863V19.1925Z" fill="white"/>
<path d="M58.4427 10.1725C58.4427 8.30546 58.8549 6.66877 59.6793 5.26243C60.5037 3.83184 61.6433 2.71646 63.0982 1.9163C64.553 1.11614 66.2018 0.716058 68.0446 0.716058C69.9117 0.716058 71.5605 1.11614 72.9911 1.9163C74.4459 2.71646 75.5855 3.83184 76.41 5.26243C77.2344 6.66877 77.6466 8.30546 77.6466 10.1725C77.6466 12.0395 77.2344 13.6884 76.41 15.119C75.5855 16.5253 74.4459 17.6285 72.9911 18.4287C71.5605 19.2289 69.9117 19.629 68.0446 19.629C66.2018 19.629 64.553 19.2289 63.0982 18.4287C61.6433 17.6285 60.5037 16.5253 59.6793 15.119C58.8549 13.6884 58.4427 12.0395 58.4427 10.1725ZM62.88 10.1725C62.88 11.2636 63.0982 12.2214 63.5346 13.0458C63.9953 13.8702 64.6015 14.5128 65.3532 14.9735C66.1291 15.4342 67.0263 15.6645 68.0446 15.6645C69.063 15.6645 69.9602 15.4342 70.7361 14.9735C71.512 14.5128 72.1182 13.8702 72.5546 13.0458C72.9911 12.2214 73.2093 11.2636 73.2093 10.1725C73.2093 9.05713 72.9911 8.09936 72.5546 7.2992C72.1182 6.47479 71.512 5.83224 70.7361 5.37154C69.9602 4.91084 69.063 4.68049 68.0446 4.68049C67.0263 4.68049 66.1291 4.91084 65.3532 5.37154C64.6015 5.83224 63.9953 6.47479 63.5346 7.2992C63.0982 8.09936 62.88 9.05713 62.88 10.1725Z" fill="white"/>
<path d="M85.601 19.1925H81.1637V1.22525H85.2737L85.6374 3.55299C86.1951 2.65584 86.9831 1.95267 88.0015 1.44348C89.0441 0.934284 90.1716 0.679688 91.384 0.679688C93.639 0.679688 95.3363 1.34649 96.4759 2.68009C97.6398 4.01369 98.2217 5.83224 98.2217 8.13573V19.1925H93.7845V9.19049C93.7845 7.68716 93.445 6.57178 92.7661 5.84436C92.0872 5.0927 91.1658 4.71686 90.0019 4.71686C88.6198 4.71686 87.5408 5.15331 86.7649 6.02621C85.989 6.89912 85.601 8.06299 85.601 9.51783V19.1925Z" fill="white"/>
<path d="M66.8233 43.4477H52.3477V39.8106L61.2949 29.1903H52.3477V25.4804H66.8233V29.1539L57.7669 39.7378H66.8233V43.4477Z" fill="white"/>
<path d="M70.4843 43.4477V25.4804H74.9215V43.4477H70.4843Z" fill="white"/>
<path d="M90.781 25.4077V29.5176H89.1443C87.5197 29.5176 86.2467 29.954 85.3253 30.827C84.4039 31.6756 83.9432 32.9728 83.9432 34.7186V43.4477H79.506V25.5168H83.6886L84.0523 29.2266H83.6159C83.8583 28.0385 84.4282 27.0686 85.3253 26.317C86.2225 25.5653 87.3863 25.1895 88.8169 25.1895C89.1321 25.1895 89.4473 25.2016 89.7626 25.2258C90.0778 25.2501 90.4172 25.3107 90.781 25.4077Z" fill="white"/>
<path d="M93.7844 43.4477V25.4804H98.2216V43.4477H93.7844Z" fill="white"/>
<path d="M0.767578 25.1895H46.8097V43.4477H0.767578V25.1895Z" fill="white"/>
<path d="M0.767578 25.1895H46.8097V43.4477H0.767578V25.1895Z" fill="url(#paint0_linear_4109_270)" fill-opacity="0.2"/>
<defs>
<linearGradient id="paint0_linear_4109_270" x1="49.1499" y1="0.679687" x2="49.1499" y2="43.4477" gradientUnits="userSpaceOnUse">
<stop/>
<stop offset="1" stop-opacity="0"/>
</linearGradient>
</defs>
</svg>
