<svg width="16" height="16" viewBox="0 0 16 16" fill="none" xmlns="http://www.w3.org/2000/svg">
<path d="M7.00765 10.952L4.21701 8.1608L5.00565 7.37216L7.00765 9.37361L11.2411 5.13965L12.0308 5.9294L7.00765 10.952Z" fill="#475FDA"/>
<path d="M8.12392 0.116211C6.5785 0.116211 5.06778 0.574482 3.78281 1.43307C2.49784 2.29167 1.49632 3.51201 0.904913 4.9398C0.313505 6.36758 0.158766 7.93868 0.460263 9.45441C0.76176 10.9701 1.50595 12.3624 2.59873 13.4552C3.69151 14.548 5.0838 15.2922 6.59953 15.5937C8.11526 15.8952 9.68635 15.7404 11.1141 15.149C12.5419 14.5576 13.7623 13.5561 14.6209 12.2711C15.4795 10.9862 15.9377 9.47544 15.9377 7.93001C15.9377 5.85766 15.1145 3.87019 13.6491 2.40482C12.1837 0.939448 10.1963 0.116211 8.12392 0.116211ZM8.12392 14.6276C6.79927 14.6276 5.50437 14.2347 4.40297 13.4988C3.30156 12.7629 2.44312 11.7169 1.9362 10.4931C1.42928 9.26923 1.29665 7.92258 1.55507 6.62339C1.8135 5.32419 2.45138 4.1308 3.38805 3.19413C4.32471 2.25746 5.5181 1.61959 6.8173 1.36116C8.11649 1.10273 9.46315 1.23537 10.687 1.74229C11.9108 2.24921 12.9568 3.10765 13.6927 4.20906C14.4287 5.31046 14.8215 6.60536 14.8215 7.93001C14.8215 9.70631 14.1158 11.4099 12.8598 12.6659C11.6038 13.9219 9.90022 14.6276 8.12392 14.6276Z" fill="#475FDA"/>
</svg>
