<svg width="25" height="25" viewBox="0 0 25 25" fill="none" xmlns="http://www.w3.org/2000/svg">
<rect x="0.414062" y="0.5" width="24" height="24" rx="12" fill="white"/>
<path d="M18.945 8.68717L10.9247 16.7075C10.8536 16.7792 10.7569 16.8194 10.6561 16.8194C10.5552 16.8194 10.4585 16.7792 10.3875 16.7075L6.30917 12.6292C6.23755 12.5583 6.19727 12.4616 6.19727 12.3606C6.19727 12.2598 6.23755 12.1631 6.30917 12.092L6.83882 11.5624C6.90985 11.4908 7.00655 11.4505 7.10743 11.4505C7.2083 11.4505 7.305 11.4908 7.37603 11.5624L10.6523 14.8386L17.8782 7.61274C18.0278 7.46763 18.2657 7.46763 18.4154 7.61274L18.945 8.14996C19.0167 8.22099 19.0569 8.31769 19.0569 8.41856C19.0569 8.51944 19.0167 8.61613 18.945 8.68717Z" fill="#0F43CB"/>
</svg>
