<svg width="156" height="232" viewBox="0 0 156 232" fill="none" xmlns="http://www.w3.org/2000/svg">
<g clip-path="url(#clip0_4413_266)">
<g filter="url(#filter0_d_4413_266)">
<path d="M130.337 96.5956H156.364C156.364 54.5027 120.511 35.3034 91.2953 30.882V0.154297H65.2678V30.882C36.0519 35.3034 0.198975 54.5027 0.198975 96.5956C0.198975 136.745 34.8937 157.621 65.2678 162.324V236.064C46.4238 232.34 26.2265 220.871 26.2265 200.455H0.198975C0.198975 238.869 31.7573 261.569 65.2678 266.273V296.897H91.2953V266.184C120.511 261.762 156.364 242.548 156.364 200.455C156.364 158.362 120.511 139.163 91.2953 134.742V60.9865C108.604 64.5325 130.337 74.9482 130.337 96.5956ZM26.2265 96.5956C26.2265 74.9482 47.9595 64.5325 65.2678 60.9865V132.19C47.4259 128.436 26.2265 117.323 26.2265 96.5956ZM130.337 200.455C130.337 222.103 108.604 232.518 91.2953 236.064V164.846C108.604 168.392 130.337 178.808 130.337 200.455Z" fill="url(#paint0_linear_4413_266)" fill-opacity="0.05" shape-rendering="crispEdges"/>
<path d="M90.7953 266.184V296.397H65.7678V266.273V265.838L65.3373 265.778C32.1145 261.115 0.973288 238.723 0.700776 200.955H25.7305C25.8928 211.111 30.9967 219.051 38.3696 224.911C45.8538 230.859 55.695 234.682 65.1708 236.555L65.7678 236.673V236.064V162.324V161.895L65.3443 161.83C35.0755 157.143 0.698975 136.38 0.698975 96.5956C0.698975 75.7111 9.58547 60.5234 22.0993 49.9946C34.6272 39.4539 50.8012 33.577 65.3426 31.3763L65.7678 31.312V30.882V0.654297H90.7953V30.882V31.312L91.2205 31.3763C105.762 33.577 121.936 39.4539 134.464 49.9946C146.878 60.4392 155.722 75.4685 155.862 96.0956H130.833C130.668 85.3304 125.18 77.3381 117.608 71.6044C109.932 65.7913 100.094 62.2787 91.3957 60.4967L90.7953 60.3737V60.9865V134.742V135.172L91.2205 135.236C105.762 137.437 121.936 143.314 134.464 153.854C146.978 164.383 155.864 179.571 155.864 200.455C155.864 221.34 146.978 236.531 134.464 247.064C121.936 257.608 105.762 263.489 91.2205 265.689L90.7953 265.754V266.184ZM65.7678 60.9865V60.3737L65.1674 60.4967C56.4691 62.2787 46.6308 65.7913 38.9547 71.6044C31.2668 77.4265 25.7265 85.5774 25.7265 96.5956C25.7265 107.154 31.134 115.248 38.7501 121.153C46.3574 127.051 56.1949 130.792 65.1648 132.679L65.7678 132.806V132.19V60.9865ZM90.7953 236.064V236.677L91.3957 236.554C100.094 234.772 109.932 231.26 117.608 225.447C125.296 219.624 130.837 211.474 130.837 200.455C130.837 189.437 125.296 181.286 117.608 175.464C109.932 169.651 100.094 166.139 91.3957 164.356L90.7953 164.233V164.846V236.064Z" stroke="url(#paint1_linear_4413_266)" shape-rendering="crispEdges"/>
</g>
</g>
<defs>
<filter id="filter0_d_4413_266" x="-3.80103" y="0.154297" width="164.165" height="304.742" filterUnits="userSpaceOnUse" color-interpolation-filters="sRGB">
<feFlood flood-opacity="0" result="BackgroundImageFix"/>
<feColorMatrix in="SourceAlpha" type="matrix" values="0 0 0 0 0 0 0 0 0 0 0 0 0 0 0 0 0 0 127 0" result="hardAlpha"/>
<feOffset dy="4"/>
<feGaussianBlur stdDeviation="2"/>
<feComposite in2="hardAlpha" operator="out"/>
<feColorMatrix type="matrix" values="0 0 0 0 0 0 0 0 0 0 0 0 0 0 0 0 0 0 0.25 0"/>
<feBlend mode="normal" in2="BackgroundImageFix" result="effect1_dropShadow_4413_266"/>
<feBlend mode="normal" in="SourceGraphic" in2="effect1_dropShadow_4413_266" result="shape"/>
</filter>
<linearGradient id="paint0_linear_4413_266" x1="132.486" y1="0.154297" x2="7.75896" y2="309.323" gradientUnits="userSpaceOnUse">
<stop stop-color="#9B4CFF"/>
<stop offset="1" stop-color="#701EDC" stop-opacity="0"/>
</linearGradient>
<linearGradient id="paint1_linear_4413_266" x1="78.2815" y1="0.154297" x2="78.2815" y2="218.474" gradientUnits="userSpaceOnUse">
<stop stop-color="#4A3174"/>
<stop offset="1" stop-color="#452C6E" stop-opacity="0"/>
</linearGradient>
<clipPath id="clip0_4413_266">
<rect width="156" height="232" fill="white"/>
</clipPath>
</defs>
</svg>
